<svg xmlns="http://www.w3.org/2000/svg" xmlns:xlink="http://www.w3.org/1999/xlink" version="1.1" x="0px" y="0px" viewBox="0 0 100 100" style="enable-background:new 0 0 100 100;" xml:space="preserve"><path d="M92.36,23.08c-0.02-0.02-0.03-0.03-0.05-0.05C90.9,21.77,89.04,21,87,21H13c-2.03,0-3.89,0.77-5.3,2.02  c-0.04,0.03-0.08,0.08-0.13,0.12C6,24.6,5,26.68,5,29v42c0,4.41,3.59,8,8,8h74c2.02,0,3.87-0.76,5.28-2  c0.03-0.03,0.06-0.06,0.1-0.09C93.98,75.45,95,73.34,95,71V29C95,26.65,93.98,24.55,92.36,23.08z M63.87,50l26.84-22.47  C90.89,27.98,91,28.48,91,29v42c0,0.52-0.11,1.02-0.29,1.47L63.87,50z M87,25c0.15,0,0.29,0.03,0.44,0.04L59.47,48.47L50,56.39  l-9.47-7.93L12.56,25.04C12.71,25.03,12.85,25,13,25H87z M9.29,72.47C9.11,72.02,9,71.52,9,71V29c0-0.52,0.11-1.02,0.29-1.47  L36.13,50L9.29,72.47z M13,75c-0.15,0-0.3-0.03-0.44-0.04l26.69-22.35l9.47,7.93C49.09,60.84,49.54,61,50,61s0.91-0.16,1.28-0.47  l9.47-7.92l26.69,22.35C87.29,74.97,87.15,75,87,75H13z"></path></svg>